<svg width="100" height="100" viewBox="0 0 100 100">
  <g fill="none" fill-rule="evenodd">
    <path fill="#FFF" fill-opacity=".9" d="M12.90625,50.3125 L12.90625,49.625 C17.5625,49.15625 19.75,46.90625 19.75,42.375 L19.75,33.65625 C19.75,28.375 21.625,26.40625 26.09375,26.40625 L27.125,26.40625 L27.125,23 L25.75,23 C18.875,23 15.8125,26.15625 15.8125,33.21875 L15.8125,40.71875 C15.8125,45.8125 14.0625,47.53125 9,47.53125 L9,52.4375 C14.0625,52.4375 15.8125,54.15625 15.8125,59.21875 L15.8125,67.3125 C15.8125,74.40625 18.90625,77.59375 25.75,77.59375 L27.125,77.59375 L27.125,74.1875 L26.09375,74.1875 C21.6875,74.1875 19.75,72.125 19.75,66.84375 L19.75,57.5625 C19.75,53.03125 17.5625,50.78125 12.90625,50.3125 Z M86.3291678,50.3125 C81.7041678,50.75 79.4854178,53.03125 79.4854178,57.59375 L79.4854178,66.84375 C79.4854178,72.125 77.5166678,74.1875 73.1416678,74.1875 L72.1104178,74.1875 L72.1104178,77.59375 L73.4854178,77.59375 C80.2979178,77.59375 83.4229178,74.34375 83.4229178,67.125 L83.4229178,59.1875 C83.4229178,54.15625 85.1416678,52.4375 90.2354178,52.4375 L90.2354178,47.53125 C85.1729178,47.53125 83.4229178,45.8125 83.4229178,40.71875 L83.4229178,33.21875 C83.4229178,26.15625 80.3604178,23 73.4854178,23 L72.1104178,23 L72.1104178,26.40625 L73.1416678,26.40625 C77.6104178,26.40625 79.4854178,28.375 79.4854178,33.65625 L79.4854178,42.375 C79.4854178,46.90625 81.6416678,49.15625 86.3291678,49.625 L86.3291678,50.3125 Z"/>
    <path stroke="#FFF" stroke-linecap="square" strokeWidth="5" d="M29.7222222 38.5L38.5 38.5M50 38.5L69.5 38.5M50 48.5L64.8766325 48.5M29.7222222 58.5L38.5 58.5M50 58.5L69.5 58.5M50 68.5L64.8766325 68.5" opacity=".2"/>
  </g>
</svg>
